<svg height='100px' width='100px'  fill="#FFFFFF" xmlns="http://www.w3.org/2000/svg" data-name="Layer 1" viewBox="0 0 100 100" x="0px" y="0px"><title>78 all</title><path d="M97,19A12,12,0,0,0,85,7H15A12,12,0,0,0,3,19V81A12,12,0,0,0,15,93H85A12,12,0,0,0,97,81ZM15,11H85a8,8,0,0,1,8,8v1.5H7V19A8,8,0,0,1,15,11ZM85,89H15a8,8,0,0,1-8-8V24.5H93V81A8,8,0,0,1,85,89Z"></path><path d="M80.5,35.5h-26a6.5,6.5,0,0,0,0,13h26a6.5,6.5,0,0,0,0-13Zm0,9h-26a2.5,2.5,0,0,1,0-5h26a2.5,2.5,0,0,1,0,5Z"></path><path d="M35.87,33.74,25.25,45.47l-5.81-4a2,2,0,0,0-2.25,3.3l7.25,4.94A2,2,0,0,0,27,49.45l11.79-13a2,2,0,0,0-3-2.68Z"></path><path d="M80.5,63.5h-26a6.5,6.5,0,0,0,0,13h26a6.5,6.5,0,1,0,0-13Zm0,9h-26a2.5,2.5,0,1,1,0-5h26a2.5,2.5,0,0,1,0,5Z"></path><path d="M37.23,60.27a2,2,0,0,0-2.83,0L27.5,67.17l-6.91-6.91a2,2,0,0,0-2.83,2.83L24.67,70l-6.91,6.91a2,2,0,1,0,2.83,2.83l6.91-6.91,6.91,6.91a2,2,0,0,0,2.83-2.83L30.33,70l6.91-6.91A2,2,0,0,0,37.23,60.27Z"></path></svg>